<?xml version="1.0" encoding="utf-8"?>
<!-- Generator: Adobe Illustrator 27.3.1, SVG Export Plug-In . SVG Version: 6.00 Build 0)  -->
<svg version="1.1" id="Ebene_1" xmlns="http://www.w3.org/2000/svg" xmlns:xlink="http://www.w3.org/1999/xlink" x="0px" y="0px"
	 viewBox="0 0 95.5 31" style="enable-background:new 0 0 95.5 31;" xml:space="preserve">
<style type="text/css">
	.st0{fill:#2185FB;}
	.st1{fill:none;}
	.st2{fill:#414141;}
</style>
<g id="Page-1">
	<g id="Desktop-HD" transform="translate(-512.000000, -610.000000)">
		<g id="Logo" transform="translate(509.000000, 609.000000)">
			<polygon class="st0" points="3.6,28.1 3.6,28.1 3.6,28.1 			"/>
			<polygon class="st0" points="26.4,28.1 26.4,28.1 25.5,25.1 25.2,24.3 19.2,4.9 19.3,4.9 25.2,24.2 25.5,25.1 			"/>
			<path id="Shape_00000115475448741509455820000012427341036601326770_" class="st1" d="M27.7,27.7l-0.8-2.6h-1.4l-0.3-0.9v-4.7
				L20.6,4.4l-0.3-1h-8.2l-0.3,0.9L2.3,27.6l-1.7,4.2l3.8-2.5c2.5-1.7,4.8-3.7,6.8-6h7.1c0.9,1.8,2,3.5,3.2,5.1l0.3,0.5l0.6,0.1
				l3.9,0.6l2.2,0.3L27.7,27.7z M22.5,27.5c-0.1-0.2-0.3-0.4-0.4-0.6c-0.3-0.4-0.5-0.8-0.8-1.2c-0.5-0.8-1.1-1.7-1.5-2.6
				c-0.2-0.4-0.4-0.9-0.6-1.3h-6.3c0.8-1.1,1.5-2.2,2.1-3.3h2.8c-1-2.7-1.5-5.9-1.7-8.5c-0.1,0.5-0.2,0.9-0.3,1.4
				c-0.2,0.8-0.4,1.6-0.7,2.3c-0.4,1.1-0.9,2.3-1.4,3.3c-1.3,2.5-2.9,4.8-5,6.9c-1.2,1.2-2.4,2.3-3.8,3.3c0,0,0,0,0,0
				c-0.4,0.3-0.8,0.6-1.2,0.9v0L13,4.9h6.2l6,19.4l0.2,0.8l0.9,3L22.5,27.5z M15.1,17.1c0.2-0.3,0.3-0.7,0.5-1
				c0.1,0.3,0.2,0.7,0.3,1H15.1z"/>
			<path class="st0" d="M26.4,28.1l-3.9-0.6c-0.1-0.2-0.3-0.4-0.4-0.6c-1-1.5-2.2-3.3-3-5h-6.3c0.8-1.1,1.5-2.2,2.1-3.3h2.8
				c-1-2.7-1.5-5.9-1.7-8.5c-0.1,0.5-0.2,0.9-0.3,1.4c-1.5,6.4-5.3,11.8-10.9,15.9c0,0,0,0,0,0c-0.4,0.3-0.8,0.6-1.2,0.8L13,4.9h6.2
				l6,19.4l0.2,0.8L26.4,28.1z"/>
			<g>
				<path class="st2" d="M36.6,18.8c-0.2-0.2-0.4-0.5-0.6-0.7c-0.2-0.2-0.5-0.3-0.8-0.5c0.7-0.2,1.3-0.5,1.8-0.8
					c0.5-0.3,1-0.7,1.3-1.1c0.4-0.4,0.6-0.9,0.8-1.4c0.2-0.5,0.3-1.1,0.3-1.6c0-0.8-0.1-1.4-0.4-2.1C38.8,10,38.3,9.4,37.7,9
					c-0.6-0.5-1.5-0.8-2.5-1.1c-1-0.3-2.2-0.4-3.6-0.4h-6.3v12l1.7,5.5h2.5v-6.7h1.4c0.4,0,0.7,0,0.8,0.1c0.2,0.1,0.4,0.2,0.5,0.5
					l3.8,5.4c0.3,0.5,0.8,0.7,1.5,0.7h3.8L36.6,18.8z M34.5,15c-0.3,0.3-0.7,0.5-1.2,0.6c-0.5,0.2-1.1,0.2-1.8,0.2h-2.1v-5.6h2.2
					c1.3,0,2.3,0.2,2.9,0.7c0.6,0.5,1,1.1,1,1.9c0,0.4-0.1,0.8-0.2,1.2C35,14.4,34.8,14.8,34.5,15z M25.2,24.3l0.2,0.8h0L25.2,24.3
					L25.2,24.3z"/>
				<path class="st2" d="M41.1,7.6v2.9H47v14.6h4.2V10.5h5.9V7.6H41.1z"/>
				<path class="st2" d="M72.8,7.6V15h-8.9V7.6h-4.2v17.5h4.2v-7.5h8.9v7.5H77V7.6H72.8z"/>
				<path class="st2" d="M94,7.6c-0.3,0-0.6,0.1-0.9,0.2c-0.2,0.2-0.4,0.3-0.5,0.5l-3.3,5.5c-0.2,0.4-0.4,0.7-0.6,1
					c-0.2,0.3-0.3,0.6-0.5,1c-0.1-0.3-0.3-0.6-0.5-1s-0.4-0.7-0.6-1l-3.3-5.5c-0.1-0.2-0.3-0.4-0.5-0.6c-0.2-0.2-0.5-0.2-0.9-0.2
					h-3.7l7.3,10.8v6.7h4.2v-6.7l7.3-10.8H94z"/>
			</g>
		</g>
	</g>
</g>
</svg>
